<?xml version="1.0" encoding="UTF-8"?>
<svg id="Layer_1" xmlns="http://www.w3.org/2000/svg" version="1.1" viewBox="0 0 751.5 208.1">
  <!-- Generator: Adobe Illustrator 29.7.1, SVG Export Plug-In . SVG Version: 2.1.1 Build 8)  -->
  <defs>
    <style>
      .st0 {
        fill: #a3d1f3;
      }
    </style>
  </defs>
  <polygon class="st0" points="157.1 118.1 55.5 9 0 9 0 205.3 51 205.3 51 83 56.4 83 170.2 205.3 208.1 205.3 208.1 9 157.1 9 157.1 118.1"/>
  <path class="st0" d="M333.9,129c0,7.3-1.4,13.7-4.1,19.1-2.7,5.4-6.4,9.6-11.1,12.5-4.7,2.9-9.9,4.3-15.7,4.3s-14.2-2.5-18.5-7.4c-4.3-5-6.5-12.2-6.5-21.7v-70.7h-46.6v80.8c0,19.3,4.9,34.5,14.7,45.6,9.8,11.1,23,16.7,39.7,16.7s20.5-2.5,28.9-7.4c8-4.7,14.4-11.5,19.1-20.3v24.9s46.6,0,46.6,0V65.1h-46.6v63.9Z"/>
  <rect class="st0" x="257.1" y="9" width="99" height="32.5"/>
  <polygon class="st0" points="751.5 205.3 682.8 132.5 745.6 65.1 688.1 65.1 624.5 125.6 624.5 9 577.7 9 577.7 205.3 624.5 205.3 624.5 141.6 691.8 205.3 751.5 205.3"/>
  <path class="st0" d="M530.8,111.9h-23.4v-23.4h23.4v-23.4h-67.2v-4.8c0-6.9,2.2-12.3,6.6-16.1,4.4-3.8,11.8-5.8,22.3-5.8s16.8.8,25.8,2.4c9,1.6,17.8,3.9,26.4,6.9h.8V7.9c-7.1-2.2-15.7-4.1-25.8-5.6-10.1-1.5-19.4-2.2-28-2.2-16.8,0-30.9,2.5-42.1,7.4-11.2,5-19.5,11.9-24.8,20.9-5.3,9-8,19.5-8,31.7v5h-18.8v46.9h18.8v93.4h46.8v-93.4h43.8v93.4h46.8v-116.8h-23.4v23.4Z"/>
</svg>